<?xml version="1.0" encoding="UTF-8" standalone="no"?>
<!-- Generator: Adobe Illustrator 16.0.0, SVG Export Plug-In . SVG Version: 6.00 Build 0)  -->

<svg
   xmlns:dc="http://purl.org/dc/elements/1.1/"
   xmlns:cc="http://creativecommons.org/ns#"
   xmlns:rdf="http://www.w3.org/1999/02/22-rdf-syntax-ns#"
   xmlns:svg="http://www.w3.org/2000/svg"
   xmlns="http://www.w3.org/2000/svg"
   xmlns:sodipodi="http://sodipodi.sourceforge.net/DTD/sodipodi-0.dtd"
   xmlns:inkscape="http://www.inkscape.org/namespaces/inkscape"
   version="1.1"
   id="Capa_1"
   x="0px"
   y="0px"
   width="463.76831"
   height="406.73792"
   viewBox="0 0 84.273588 73.910317"
   xml:space="preserve"
   inkscape:version="0.91 r13725"
   sodipodi:docname="speaker-on.svg"><metadata
     id="metadata41"><rdf:RDF><cc:Work
         rdf:about=""><dc:format>image/svg+xml</dc:format><dc:type
           rdf:resource="http://purl.org/dc/dcmitype/StillImage" /><dc:title></dc:title></cc:Work></rdf:RDF></metadata><defs
     id="defs39"><clipPath
       clipPathUnits="userSpaceOnUse"
       id="clipPath4159"><g
         id="g4161"
         transform="translate(0,-9.5646832)"><path
           d="m 46.547,75.521 c 0,1.639 -0.947,3.128 -2.429,3.823 -0.573,0.271 -1.187,0.402 -1.797,0.402 -0.966,0 -1.923,-0.332 -2.696,-0.973 l -23.098,-19.14 -12.302,0 C 1.892,59.635 0,57.742 0,55.409 L 0,38.576 C 0,36.242 1.892,34.35 4.225,34.35 l 12.303,0 23.098,-19.14 c 1.262,-1.046 3.012,-1.269 4.493,-0.569 1.481,0.695 2.429,2.185 2.429,3.823 l -0.001,57.057 0,0 z m 16.237,-6.602 c -0.103,0.007 -0.202,0.011 -0.304,0.011 -1.116,0 -2.192,-0.441 -2.987,-1.237 l -0.565,-0.567 c -1.482,-1.479 -1.656,-3.822 -0.408,-5.504 3.164,-4.266 4.834,-9.323 4.834,-14.628 0,-5.706 -1.896,-11.058 -5.484,-15.478 -1.366,-1.68 -1.24,-4.12 0.291,-5.65 l 0.564,-0.565 c 0.844,-0.844 1.975,-1.304 3.199,-1.231 1.192,0.06 2.305,0.621 3.061,1.545 4.977,6.09 7.606,13.484 7.606,21.38 0,7.354 -2.325,14.354 -6.725,20.24 -0.735,0.981 -1.859,1.597 -3.082,1.684 z m 17.468,13.057 c -0.764,0.903 -1.869,1.445 -3.052,1.495 -0.058,0.002 -0.117,0.004 -0.177,0.004 -1.119,0 -2.193,-0.442 -2.988,-1.237 L 73.48,81.683 c -1.551,-1.55 -1.656,-4.029 -0.246,-5.707 6.814,-8.104 10.568,-18.396 10.568,-28.982 0,-11.011 -4.019,-21.611 -11.314,-29.847 -1.479,-1.672 -1.404,-4.203 0.17,-5.783 l 0.554,-0.555 c 0.822,-0.826 1.89,-1.281 3.115,-1.242 1.163,0.033 2.263,0.547 3.036,1.417 8.818,9.928 13.675,22.718 13.675,36.01 0.002,12.789 -4.539,25.213 -12.786,34.982 z"
           id="path4163"
           inkscape:connector-curvature="0"
           style="fill:#ffffff" /></g></clipPath><clipPath
       clipPathUnits="userSpaceOnUse"
       id="clipPath4171"><rect
         style="opacity:1;fill:#ffffff;fill-opacity:1;stroke:none;stroke-width:1;stroke-miterlimit:4;stroke-dasharray:none;stroke-opacity:1"
         id="rect4173"
         width="52.685993"
         height="82.234756"
         x="-2.2300932"
         y="6.3973422" /></clipPath></defs><sodipodi:namedview
     pagecolor="#ff0000"
     bordercolor="#666666"
     borderopacity="1"
     objecttolerance="10"
     gridtolerance="10"
     guidetolerance="10"
     inkscape:pageopacity="0"
     inkscape:pageshadow="2"
     inkscape:window-width="1847"
     inkscape:window-height="1053"
     id="namedview37"
     showgrid="false"
     fit-margin-top="0"
     fit-margin-left="0"
     fit-margin-right="0"
     fit-margin-bottom="0"
     inkscape:zoom="1.3037281"
     inkscape:cx="330.38161"
     inkscape:cy="184.64931"
     inkscape:window-x="73"
     inkscape:window-y="27"
     inkscape:window-maximized="1"
     inkscape:current-layer="Capa_1" /><g
     id="g7"
     transform="translate(-1.53319,-9.5646832)" /><g
     id="g9"
     transform="translate(-1.53319,-9.5646832)" /><g
     id="g11"
     transform="translate(-1.53319,-9.5646832)" /><g
     id="g13"
     transform="translate(-1.53319,-9.5646832)" /><g
     id="g15"
     transform="translate(-1.53319,-9.5646832)" /><g
     id="g17"
     transform="translate(-1.53319,-9.5646832)" /><g
     id="g19"
     transform="translate(-1.53319,-9.5646832)" /><g
     id="g21"
     transform="translate(-1.53319,-9.5646832)" /><g
     id="g23"
     transform="translate(-1.53319,-9.5646832)" /><g
     id="g25"
     transform="translate(-1.53319,-9.5646832)" /><g
     id="g27"
     transform="translate(-1.53319,-9.5646832)" /><g
     id="g29"
     transform="translate(-1.53319,-9.5646832)" /><g
     id="g31"
     transform="translate(-1.53319,-9.5646832)" /><g
     id="g33"
     transform="translate(-1.53319,-9.5646832)" /><g
     id="g35"
     transform="translate(-1.53319,-9.5646832)" /><g
     id="g4160"
     transform="translate(2.7727488e-6,2.7321814e-6)"><rect
       transform="matrix(0.80609937,0,0,0.80609937,9.2757064,8.0591121)"
       clip-path="url(#clipPath4159)"
       y="-0.37972108"
       x="51.431568"
       height="85.161751"
       width="51.710331"
       id="rect4149"
       style="opacity:1;fill:#ffffff;fill-opacity:1;stroke:none;stroke-width:1;stroke-miterlimit:4;stroke-dasharray:none;stroke-opacity:1" /><g
       clip-path="url(#clipPath4171)"
       id="g4155"
       transform="translate(-2.7727488e-6,-9.5646859)"><path
         d="m 46.547,75.521 c 0,1.639 -0.947,3.128 -2.429,3.823 -0.573,0.271 -1.187,0.402 -1.797,0.402 -0.966,0 -1.923,-0.332 -2.696,-0.973 l -23.098,-19.14 -12.302,0 C 1.892,59.635 0,57.742 0,55.409 L 0,38.576 C 0,36.242 1.892,34.35 4.225,34.35 l 12.303,0 23.098,-19.14 c 1.262,-1.046 3.012,-1.269 4.493,-0.569 1.481,0.695 2.429,2.185 2.429,3.823 l -0.001,57.057 0,0 z m 16.237,-6.602 c -0.103,0.007 -0.202,0.011 -0.304,0.011 -1.116,0 -2.192,-0.441 -2.987,-1.237 l -0.565,-0.567 c -1.482,-1.479 -1.656,-3.822 -0.408,-5.504 3.164,-4.266 4.834,-9.323 4.834,-14.628 0,-5.706 -1.896,-11.058 -5.484,-15.478 -1.366,-1.68 -1.24,-4.12 0.291,-5.65 l 0.564,-0.565 c 0.844,-0.844 1.975,-1.304 3.199,-1.231 1.192,0.06 2.305,0.621 3.061,1.545 4.977,6.09 7.606,13.484 7.606,21.38 0,7.354 -2.325,14.354 -6.725,20.24 -0.735,0.981 -1.859,1.597 -3.082,1.684 z m 17.468,13.057 c -0.764,0.903 -1.869,1.445 -3.052,1.495 -0.058,0.002 -0.117,0.004 -0.177,0.004 -1.119,0 -2.193,-0.442 -2.988,-1.237 L 73.48,81.683 c -1.551,-1.55 -1.656,-4.029 -0.246,-5.707 6.814,-8.104 10.568,-18.396 10.568,-28.982 0,-11.011 -4.019,-21.611 -11.314,-29.847 -1.479,-1.672 -1.404,-4.203 0.17,-5.783 l 0.554,-0.555 c 0.822,-0.826 1.89,-1.281 3.115,-1.242 1.163,0.033 2.263,0.547 3.036,1.417 8.818,9.928 13.675,22.718 13.675,36.01 0.002,12.789 -4.539,25.213 -12.786,34.982 z"
         id="path4157"
         inkscape:connector-curvature="0"
         style="fill:#ffffff" /></g></g></svg>